<svg width="682" height="577" viewBox="0 0 682 577" fill="none" xmlns="http://www.w3.org/2000/svg">
<path d="M133.067 3.9335C131.067 6.06683 100.4 44.8668 64.6666 90.3335C4.13329 167.267 -0.266709 173.134 0.399957 177.134C0.933291 180.467 40.4 227.8 168.133 378.2C278.267 508.067 336.133 575.267 338.267 575.8C339.867 576.334 342.8 576.334 344.4 575.8C346.533 575.267 405.067 507.267 514.8 378.067C667.733 197.667 681.867 180.6 681.867 176.334C682 172.067 675.067 162.734 618.133 90.3335C582.933 45.5335 552.4 7.00017 550.267 4.60017L546.133 0.333499H341.333H136.533L133.067 3.9335ZM315.067 24.8668C305.067 37.9335 204.667 153.4 204 152.6C202.667 151.267 157.333 25.2668 157.333 23.2668C157.333 22.0668 174.933 21.6668 237.467 21.6668H317.6L315.067 24.8668ZM525.333 23.2668C525.333 25.2668 480 151.267 478.667 152.6C478 153.4 377.2 37.4002 367.6 24.8668L365.067 21.6668H445.2C507.333 21.6668 525.333 22.0668 525.333 23.2668ZM400.533 97.0002L458.667 165L400 165.4C367.733 165.534 314.933 165.534 282.667 165.4L224 165L282.267 96.7335C314.4 59.1335 341.067 28.6002 341.467 28.7335C342 28.8668 368.533 59.5335 400.533 97.0002ZM161.067 99.2668C173.733 134.2 184 163.4 184 164.2C184 165.267 162.267 165.667 109.2 165.667C62.4 165.667 34.6666 165.134 34.9333 164.334C36 161.4 136.8 34.0668 137.467 34.8668C137.867 35.2668 148.533 64.2002 161.067 99.2668ZM607.067 111.934C629.6 140.6 648 164.467 648 164.867C648 165.267 614.4 165.667 573.333 165.667C518.933 165.667 498.667 165.267 498.667 164.2C498.667 163 530.533 73.8002 544.267 36.4668C545.6 33.0002 538.8 24.7335 607.067 111.934ZM251.067 347.934C283.067 436.467 309.067 509.134 308.8 509.4C308.267 509.934 36.9333 190.2 36.2666 188.334C36 187.534 64.6666 187 114.267 187H192.8L251.067 347.934ZM464.133 193.934C457.2 213.8 342.4 530.334 341.733 531.4C341.2 532.334 303.867 430.2 220 197.934L216 187H341.333H466.533L464.133 193.934ZM646.4 188.334C645.733 190.2 374.4 509.8 373.867 509.267C373.6 509.134 399.6 436.467 431.6 347.934L489.867 187H568.4C617.867 187 646.667 187.534 646.4 188.334Z" fill="#0035BD"/>
</svg>
